<svg id="Layer_1" data-name="Layer 1" xmlns="http://www.w3.org/2000/svg" viewBox="0 0 2008.08 300"><defs><style>.cls-1{fill:#21252d;}.cls-2{fill:#6022e7;}</style></defs><g id="Group_8" data-name="Group 8"><path id="Path_17" data-name="Path 17" class="cls-1" d="M209.41-13.43q-31.6,0-33.58,28.36-2,28.55,29.65,28.55A35.11,35.11,0,0,0,229.67,36a29.72,29.72,0,0,0,9.37-21Q241-13.42,209.41-13.43Zm467.46,0L656.16,282.73h58l7-100.11q2.61-37.12,14.6-53.67t36.38-16.56q34.27,0,31,46.06l-8.69,124.3h58.07L862.29,144q2.64-37.68-15.36-57.86T791.42,65.94q-42.21,0-63.83,31.22h-3.07L727.06,80Q730.21,54,730.71,46.9l4.21-60.34Zm707.09,0q-31.59,0-33.57,28.36-2,28.55,29.6,28.55A35.19,35.19,0,0,0,1404.21,36a29.74,29.74,0,0,0,9.37-21q2-28.36-29.62-28.36ZM-61.17,4.46S-46,53.17-5.54,52.8H21.28q24.19,0,34.8,9.92t9.19,30.67a40.59,40.59,0,0,1-15.7,31.31Q35.31,135.46,8.08,135.45H-11.33C-65.27,135.72-72.25,172-72.25,172l-8.41,110.73h59l6.93-99H10.61q51.78,0,81.51-23.79T125,91.29q3-43.2-21.81-65T27.72,4.5Zm997.56,0L916.93,282.71h59l6.91-99h25.32q51.77,0,81.5-23.78t32.88-68.72q3-43.2-21.82-65T1025.26,4.44ZM323.8,24.64,303.92,69.56,270.59,89l-1.71,24.56h27.79L289.5,216.11q-2.49,35.2,12.18,52.82t49.49,17.59a135.25,135.25,0,0,0,54-9.71l3-43.21a130.24,130.24,0,0,1-37,6.67,25.76,25.76,0,0,1-18-5.9,21.36,21.36,0,0,1-5.67-18.27l7.17-102.58h59.59l3-43.59H357.75l3.15-45.3Zm1430.74,0-19.89,44.92L1701.32,89l-1.71,24.56h27.79l-7.17,102.58q-2.48,35.2,12.2,52.82t49.49,17.59a135.29,135.29,0,0,0,54-9.71l3-43.21a130.24,130.24,0,0,1-37,6.67,25.67,25.67,0,0,1-18-5.9,21.35,21.35,0,0,1-5.66-18.27l7.15-102.57H1845l3-43.59h-59.58l3.16-45.3ZM992,52.79h26.84q24.17,0,34.8,9.92t9.19,30.64a40.61,40.61,0,0,1-15.71,31.32q-14.26,10.76-41.49,10.75H986.24Zm299,13.14a69.71,69.71,0,0,0-37.4,10.94,88.79,88.79,0,0,0-28.76,28.82H1222L1216,69.92h-44l-14.88,212.8h58.07l7.57-108.3a55.5,55.5,0,0,1,18.31-40q16.5-14.26,44.3-14.27a65.29,65.29,0,0,1,17,1.9l8.18-54.44a91.61,91.61,0,0,0-19.48-1.7Zm298.07,0a94.94,94.94,0,0,0-39.29,7.9,67.77,67.77,0,0,0-28.36,23.32h-3.24l-5.9-27.22H1468l-14.88,212.79h58l7-100.11q2.64-37.7,14.62-54t36.36-16.27q17.88,0,25.25,11.49t5.77,34.56l-8.69,124.29h58.08L1659.22,144q2.64-37.89-15.17-58t-54.94-20.08Zm-1026.67,0Q512,65.93,483,94.58t-32.82,82.88q-7.63,109.06,91.73,109.06a163.93,163.93,0,0,0,36.5-3.42,100.28,100.28,0,0,0,29.31-12.35l3.47-49.68a121.55,121.55,0,0,1-29.52,14,105.84,105.84,0,0,1-31.33,4.47q-45.3,0-40.93-62.42,4.5-64.35,49.79-64.35a79.73,79.73,0,0,1,23.36,3.52q11.55,3.51,24.87,9l20.29-44.92a141.5,141.5,0,0,0-65.25-14.43Zm-388,4-14.88,212.8h58l14.88-212.8Zm1174.56,0-14.88,212.8h58.08l14.88-212.79Z" transform="translate(160.02 13.44)"/><g id="Group_1" data-name="Group 1"><path id="Path_1" data-name="Path 1" class="cls-2" d="M-78.88,44.87a10.71,10.71,0,0,0-15,2.3,10.67,10.67,0,0,0-2,5.59l-.23,3.18a6.64,6.64,0,0,1-6.12,4.18h-10.48a6.5,6.5,0,0,0-6.49,5.12,6.31,6.31,0,0,0,5.06,7.35,6.1,6.1,0,0,0,1.13.11l15.72.1a5.73,5.73,0,0,1,4.53,6.71,5.72,5.72,0,0,1-5.33,4.63s-.36,0-.55,0h-34.47v0h-8.78a3.63,3.63,0,0,0-.57,0,6.38,6.38,0,0,0-5.79,6.93h0a6.61,6.61,0,0,0,6.7,5.82h42c.19,0,.56,0,.56,0A5.73,5.73,0,0,1-94,103.32a5.73,5.73,0,0,1-5.89,5.12h-22.06a6.39,6.39,0,0,0-6.38,6.4,6.23,6.23,0,0,0,.13,1.3,6.56,6.56,0,0,0,6.5,5.08h15.21a5.42,5.42,0,0,1,5.38,4.87l-.18,2.6a10.71,10.71,0,0,0,10,11.44,10.68,10.68,0,0,0,6.68-1.76l69.81-46.49Z" transform="translate(160.02 13.44)"/><path id="Path_2" data-name="Path 2" class="cls-2" d="M-141,108.41h-12.63a3.63,3.63,0,0,0-.57,0,6.38,6.38,0,0,0-5.79,6.93h0a6.6,6.6,0,0,0,6.69,5.81H-141a6.39,6.39,0,0,0,6.39-6.39h0a6.4,6.4,0,0,0-6.4-6.38Z" transform="translate(160.02 13.44)"/></g></g></svg>