<svg id="Layer_1" data-name="Layer 1" xmlns="http://www.w3.org/2000/svg" viewBox="0 0 285.34 278.31"><defs><style>.cls-1{fill:#fff;}</style></defs><g id="Group_8" data-name="Group 8"><path id="Path_17" data-name="Path 17" class="cls-1" d="M-117-706.25s15.12,48.71,55.62,48.34h26.82q24.2,0,34.8,9.92t9.2,30.67A40.6,40.6,0,0,1-6.31-586q-14.28,10.75-41.49,10.75H-67.22c-53.93.27-60.91,36.59-60.91,36.59l-8.42,110.73h59l6.92-99h25.32q51.78,0,81.51-23.79t32.87-68.71q3-43.2-21.81-65t-75.47-21.79Z" transform="translate(215.9 706.25)"/><g id="Group_1" data-name="Group 1"><path id="Path_1" data-name="Path 1" class="cls-1" d="M-134.76-665.85a10.74,10.74,0,0,0-15,2.3,10.88,10.88,0,0,0-2.05,5.59l-.22,3.19a6.61,6.61,0,0,1-6.12,4.17h-10.48a6.51,6.51,0,0,0-6.49,5.12,6.31,6.31,0,0,0,5.06,7.36,6.07,6.07,0,0,0,1.12.11l15.73.1a5.73,5.73,0,0,1,4.53,6.71,5.75,5.75,0,0,1-5.33,4.63s-.37,0-.56,0H-189v0h-8.79a3.51,3.51,0,0,0-.56,0,6.37,6.37,0,0,0-5.79,6.92h0a6.61,6.61,0,0,0,6.69,5.82h42l.55,0a5.74,5.74,0,0,1,5.09,6.32,5.73,5.73,0,0,1-5.89,5.12h-22.06a6.4,6.4,0,0,0-6.39,6.4,6.31,6.31,0,0,0,.14,1.3,6.53,6.53,0,0,0,6.5,5.07h15.2a5.41,5.41,0,0,1,5.38,4.88l-.18,2.6a10.72,10.72,0,0,0,9.95,11.44,10.64,10.64,0,0,0,6.69-1.77l69.81-46.48Z" transform="translate(215.9 706.25)"/><path id="Path_2" data-name="Path 2" class="cls-1" d="M-196.89-602.3h-12.62a3.63,3.63,0,0,0-.57,0,6.38,6.38,0,0,0-5.8,6.92h0a6.61,6.61,0,0,0,6.7,5.81h12.32a6.39,6.39,0,0,0,6.39-6.38h0a6.39,6.39,0,0,0-6.4-6.38Z" transform="translate(215.9 706.25)"/></g></g></svg>