<svg xmlns="http://www.w3.org/2000/svg" viewBox="0 0 1200 630" width="1200" height="630" role="img" aria-labelledby="tl ds">
  <title id="tl">Smart Sizes</title>
  <desc id="ds">One design resized into portrait, landscape and square variants, with the elements repositioned to suit each canvas.</desc>

  <rect width="1200" height="630" fill="#F7F6FC"/>
  <circle cx="1130" cy="70" r="180" fill="#EEEBFD"/>
  <circle cx="96" cy="580" r="120" fill="#EEEBFD"/>

  <g font-family="Inter, 'Helvetica Neue', Helvetica, Arial, sans-serif">
    <rect x="72" y="118" width="132" height="34" rx="17" fill="#6022E7"/>
    <text x="138" y="141" text-anchor="middle" font-size="14" font-weight="500" fill="#FFFFFF" letter-spacing="0.4">SMART SIZES</text>

    <text x="72" y="242" font-size="66" font-weight="700" fill="#14121F">One design,</text>
    <text x="72" y="308" font-size="66" font-weight="700" fill="#14121F">every format</text>
    <text x="72" y="360" font-size="24" fill="#57536E">Resize the canvas and the elements</text>
    <text x="72" y="394" font-size="24" fill="#57536E">move with it.</text>

    <rect x="72" y="450" width="300" height="2" fill="#E4E1F2"/>
    <text x="72" y="494" font-size="16" fill="#6B6880">Portrait · Landscape · Square</text>

    <g>
      <rect x="662" y="150" width="150" height="212" rx="12" fill="#FFFFFF" stroke="#E4E1F2" stroke-width="1.5"/>
      <rect x="682" y="172" width="110" height="88" rx="7" fill="#EEEBFD"/>
      <circle cx="716" cy="212" r="18" fill="#6022E7"/>
      <path d="M740 230 q16 -22 34 -6" fill="none" stroke="#07D4CB" stroke-width="4" stroke-linecap="round"/>
      <rect x="682" y="278" width="88" height="9" rx="4.5" fill="#D9D3F3"/>
      <rect x="682" y="296" width="66" height="9" rx="4.5" fill="#EEEBFD"/>
      <rect x="682" y="322" width="52" height="20" rx="6" fill="#6022E7"/>
      <text x="737" y="392" text-anchor="middle" font-size="14" fill="#57536E">Portrait</text>

      <rect x="844" y="182" width="212" height="130" rx="12" fill="#FFFFFF" stroke="#E4E1F2" stroke-width="1.5"/>
      <rect x="864" y="202" width="86" height="90" rx="7" fill="#EEEBFD"/>
      <circle cx="890" cy="234" r="15" fill="#6022E7"/>
      <path d="M910 250 q13 -18 28 -5" fill="none" stroke="#07D4CB" stroke-width="3.5" stroke-linecap="round"/>
      <rect x="966" y="212" width="70" height="9" rx="4.5" fill="#D9D3F3"/>
      <rect x="966" y="230" width="52" height="9" rx="4.5" fill="#EEEBFD"/>
      <rect x="966" y="256" width="46" height="18" rx="6" fill="#6022E7"/>
      <text x="950" y="342" text-anchor="middle" font-size="14" fill="#57536E">Landscape</text>

      <rect x="662" y="424" width="150" height="150" rx="12" fill="#FFFFFF" stroke="#E4E1F2" stroke-width="1.5"/>
      <rect x="682" y="444" width="110" height="62" rx="7" fill="#EEEBFD"/>
      <circle cx="710" cy="472" r="14" fill="#6022E7"/>
      <path d="M730 486 q13 -17 26 -5" fill="none" stroke="#07D4CB" stroke-width="3.5" stroke-linecap="round"/>
      <rect x="682" y="520" width="74" height="8" rx="4" fill="#D9D3F3"/>
      <rect x="682" y="538" width="44" height="16" rx="5" fill="#6022E7"/>
      <text x="737" y="600" text-anchor="middle" font-size="14" fill="#57536E">Square</text>

      <g stroke="#C9C3EC" stroke-width="2" stroke-dasharray="5 5" fill="none">
        <path d="M820 256 h16"/>
        <path d="M737 372 v44"/>
      </g>
      <g fill="#A17BF4">
        <path d="M872 396 l3.5 8 8 3.5 -8 3.5 -3.5 8 -3.5 -8 -8 -3.5 8 -3.5 z"/>
        <path d="M900 470 l4.5 10.5 10.5 4.5 -10.5 4.5 -4.5 10.5 -4.5 -10.5 -10.5 -4.5 10.5 -4.5 z"/>
      </g>
    </g>
  </g>
</svg>
