<svg id="Layer_1" data-name="Layer 1" xmlns="http://www.w3.org/2000/svg" viewBox="0 0 642.59 96"><defs><style>.cls-1{fill:#fff;}</style></defs><g id="Group_8" data-name="Group 8"><path id="Path_17" data-name="Path 17" class="cls-1" d="M-9-310.66q-10.11,0-10.74,9.08t9.49,9.13a11.26,11.26,0,0,0,7.74-2.4,9.56,9.56,0,0,0,3-6.74Q1.07-310.65-9-310.66Zm149.59,0-6.62,94.78h18.57l2.24-32q.83-11.88,4.67-17.17t11.64-5.3q11,0,9.93,14.74l-2.78,39.77h18.58l3.11-44.4q.84-12.06-4.92-18.52t-17.76-6.46q-13.5,0-20.43,10h-1l.81-5.48c.68-5.56,1.07-9.1,1.17-10.6l1.35-19.31Zm226.27,0q-10.11,0-10.74,9.08t9.47,9.13a11.23,11.23,0,0,0,7.75-2.4,9.52,9.52,0,0,0,3-6.73q.63-9.07-9.48-9.08Zm-462.44,5.73s4.84,15.58,17.8,15.47h8.58q7.74,0,11.14,3.17t2.94,9.82a13,13,0,0,1-5,10Q-64.76-263-73.47-263h-6.21c-17.26.08-19.49,11.7-19.49,11.7l-2.7,35.44H-83l2.22-31.68h8.1q16.57,0,26.08-7.61t10.52-22q1-13.82-7-20.8t-24.15-7Zm319.22,0-6.23,89h18.88l2.22-31.67h8.1q16.56,0,26.08-7.62t10.52-22q1-13.83-7-20.81t-24.15-7Zm-196,6.46L21.2-284.1l-10.66,6.21L10-270h8.89l-2.3,32.83q-.79,11.26,3.9,16.9t15.84,5.63a43.41,43.41,0,0,0,17.27-3.11l1-13.83a42,42,0,0,1-11.85,2.14A8.21,8.21,0,0,1,37-231.36a6.83,6.83,0,0,1-1.82-5.85L37.45-270H56.51l1-14H38.42l1-14.5Zm457.84,0L479-284.1l-10.66,6.21-.55,7.86h8.89l-2.29,32.83q-.8,11.26,3.9,16.9t15.84,5.63a43.41,43.41,0,0,0,17.27-3.11l1-13.83a41.85,41.85,0,0,1-11.84,2.14,8.23,8.23,0,0,1-5.75-1.89,6.81,6.81,0,0,1-1.81-5.85L495.29-270h19.06l1-14H496.26l1-14.49Zm-244,9H250q7.74,0,11.14,3.18t2.94,9.8a13,13,0,0,1-5,10Q254.46-263,245.75-263h-6.21Zm95.69,4.21a22.29,22.29,0,0,0-12,3.5,28.44,28.44,0,0,0-9.2,9.22H315L313.05-284H299l-4.76,68.09H312.8l2.43-34.66a17.74,17.74,0,0,1,5.85-12.79q5.28-4.56,14.18-4.56a20.78,20.78,0,0,1,5.44.6l2.62-17.42a29.74,29.74,0,0,0-6.24-.54Zm95.38,0a30.36,30.36,0,0,0-12.57,2.53,21.58,21.58,0,0,0-9.08,7.46h-1L407.89-284h-14.2l-4.76,68.09H407.5l2.24-32q.86-12.06,4.68-17.27t11.64-5.21c3.81,0,6.51,1.22,8.08,3.68s2.18,6.14,1.84,11.06l-2.78,39.77h18.59l3.11-44.41q.84-12.12-4.86-18.54t-17.58-6.43Zm-328.53,0q-16.16,0-25.44,9.17T68-249.57q-2.43,34.9,29.36,34.9a52.68,52.68,0,0,0,11.68-1.1,32.15,32.15,0,0,0,9.38-3.95l1.11-15.9a39,39,0,0,1-9.45,4.48,34,34,0,0,1-10,1.43q-14.49,0-13.09-20,1.44-20.6,15.93-20.59a25.24,25.24,0,0,1,7.47,1.13q3.7,1.13,8,2.88l6.5-14.37a45.26,45.26,0,0,0-20.88-4.62ZM-20.24-284-25-215.89H-6.42L-1.66-284Zm375.86,0-4.76,68.09h18.58L374.21-284Z" transform="translate(127.26 310.66)"/><g id="Group_1" data-name="Group 1"><path id="Path_1" data-name="Path 1" class="cls-1" d="M-101.3-292a3.43,3.43,0,0,0-4.79.73,3.38,3.38,0,0,0-.66,1.79l-.07,1a2.14,2.14,0,0,1-2,1.34h-3.35a2.07,2.07,0,0,0-2.08,1.64,2,2,0,0,0,1.62,2.35l.36,0,5,0a1.83,1.83,0,0,1,1.45,2.15,1.85,1.85,0,0,1-1.71,1.48h-14.19a2,2,0,0,0-1.86,2.21h0a2.11,2.11,0,0,0,2.14,1.86h13.62a1.84,1.84,0,0,1,1.63,2,1.84,1.84,0,0,1-1.89,1.64h-7a2.05,2.05,0,0,0-2,2.05,3,3,0,0,0,0,.42,2.1,2.1,0,0,0,2.08,1.62h4.87A1.73,1.73,0,0,1-108.4-266l-.06.83a3.44,3.44,0,0,0,3.19,3.66,3.39,3.39,0,0,0,2.14-.56L-80.79-277Z" transform="translate(127.26 310.66)"/><path id="Path_2" data-name="Path 2" class="cls-1" d="M-121.18-271.67h-4.22a2,2,0,0,0-1.85,2.22h0a2.11,2.11,0,0,0,2.14,1.86h3.94a2.05,2.05,0,0,0,2-2.05h0a2.06,2.06,0,0,0-2-2Z" transform="translate(127.26 310.66)"/></g></g></svg>